<svg width="620.2" height="97.2" viewBox="0 0 620.2 97.2" xmlns="http://www.w3.org/2000/svg"><g id="svgGroup" stroke-linecap="round" fill-rule="evenodd" font-size="9pt" stroke="#000" stroke-width="0.25mm" fill="#000" style="stroke:#000;stroke-width:0.25mm;fill:#000"><path d="M 174.7 74 L 165.7 74 L 165.7 22 L 174.4 22 L 174.4 30.7 Q 177.2 26.5 181.5 23.65 A 17.205 17.205 0 0 1 190.702 20.809 A 20.858 20.858 0 0 1 191.3 20.8 A 20.994 20.994 0 0 1 195.717 21.24 Q 198.703 21.882 200.985 23.463 A 13.128 13.128 0 0 1 201.45 23.8 A 15.751 15.751 0 0 1 206.898 31.489 A 19.154 19.154 0 0 1 207 31.8 Q 210.1 27.2 214.35 24 A 15.669 15.669 0 0 1 221.141 21.116 A 21.446 21.446 0 0 1 224.9 20.8 A 21.437 21.437 0 0 1 229.788 21.322 Q 233.374 22.162 235.863 24.351 A 12.994 12.994 0 0 1 237.55 26.15 A 18.992 18.992 0 0 1 240.961 33.422 Q 241.7 36.472 241.7 40.1 L 241.7 74 L 232.7 74 L 232.7 40.8 A 19.042 19.042 0 0 0 232.363 37.111 Q 231.927 34.905 230.928 33.161 A 10.982 10.982 0 0 0 230.2 32.05 A 7.974 7.974 0 0 0 224.387 28.754 A 10.678 10.678 0 0 0 223.3 28.7 A 11.926 11.926 0 0 0 216.541 30.827 A 15.996 15.996 0 0 0 214.95 32.05 Q 211.1 35.4 208.2 39.9 L 208.2 74 L 199.2 74 L 199.2 40.8 A 19.042 19.042 0 0 0 198.863 37.111 Q 198.427 34.905 197.428 33.161 A 10.982 10.982 0 0 0 196.7 32.05 A 7.974 7.974 0 0 0 190.887 28.754 A 10.678 10.678 0 0 0 189.8 28.7 A 12.02 12.02 0 0 0 183.481 30.528 A 16.244 16.244 0 0 0 181.5 31.95 Q 177.6 35.2 174.7 39.6 L 174.7 74 Z M 55.7 74 L 46.7 74 L 46.7 0 L 55.7 0 L 55.7 30.3 Q 58.5 26.2 62.8 23.5 A 17.572 17.572 0 0 1 69.925 20.991 A 22.595 22.595 0 0 1 72.9 20.8 A 23.225 23.225 0 0 1 77.965 21.318 Q 83.059 22.456 86.05 26.1 Q 90.175 31.126 90.388 39.209 A 33.764 33.764 0 0 1 90.4 40.1 L 90.4 74 L 81.4 74 L 81.4 41.1 Q 81.4 35.5 78.8 32.1 A 8.42 8.42 0 0 0 72.642 28.753 A 11.979 11.979 0 0 0 71.5 28.7 A 13.23 13.23 0 0 0 64.787 30.566 A 17.586 17.586 0 0 0 62.75 31.95 Q 58.6 35.2 55.7 39.6 L 55.7 74 Z M 524.7 95.2 L 526.7 87.7 A 9.908 9.908 0 0 0 527.865 88.274 Q 528.688 88.619 529.7 88.9 A 13.514 13.514 0 0 0 531.979 89.317 A 17.358 17.358 0 0 0 533.7 89.4 Q 537.9 89.4 541.2 86.7 A 12.003 12.003 0 0 0 543.133 84.639 Q 544.881 82.328 546.541 78.475 A 58.58 58.58 0 0 0 547.5 76.1 L 549.8 70.1 L 545 70.1 L 524.7 24.4 L 532.7 20.8 L 552.1 64.1 L 567.2 21.2 L 575.5 24.4 L 556.4 76.6 A 71.728 71.728 0 0 1 554.347 81.686 Q 553.245 84.126 552.078 86.114 A 30.86 30.86 0 0 1 550.1 89.1 A 24.268 24.268 0 0 1 547.222 92.311 Q 545.308 94.079 543.205 95.118 A 14.737 14.737 0 0 1 542.6 95.4 Q 538.5 97.2 533.5 97.2 Q 530.5 97.2 528.25 96.6 Q 526 96 524.7 95.2 Z M 620.2 74 L 580 74 L 580 66.9 L 608.7 29.8 L 580.6 29.8 L 580.6 22 L 619.7 22 L 619.7 28.9 L 591.1 66 L 620.2 66 L 620.2 74 Z M 523.2 69.1 L 516.4 74.9 L 498.9 53.2 L 481.6 74.7 L 475.2 69.1 L 493.7 47.6 L 475.9 27 L 482.9 20.9 L 499 41.7 L 514.8 21.3 L 521.5 27 L 504.2 47.2 L 523.2 69.1 Z M 314.4 69.8 L 318.2 62.3 A 18.557 18.557 0 0 0 321.344 64.426 Q 322.898 65.27 324.75 65.95 A 24.073 24.073 0 0 0 332.361 67.387 A 27.464 27.464 0 0 0 333.2 67.4 Q 338.592 67.4 341.435 65.685 A 7.738 7.738 0 0 0 341.65 65.55 Q 344.5 63.7 344.5 60.8 A 7.123 7.123 0 0 0 344.186 58.653 A 6.212 6.212 0 0 0 343.45 57.1 A 6.384 6.384 0 0 0 342.521 56.006 Q 341.507 55.034 339.834 54.081 A 22.3 22.3 0 0 0 339.6 53.95 A 28.462 28.462 0 0 0 337.606 52.957 Q 335.49 51.995 332.501 50.946 A 103.602 103.602 0 0 0 331.5 50.6 A 46.616 46.616 0 0 1 327.102 48.857 Q 324.988 47.883 323.312 46.795 A 19.335 19.335 0 0 1 320.55 44.65 A 11.324 11.324 0 0 1 317.256 38.654 A 16.794 16.794 0 0 1 316.9 35.1 Q 316.9 29.1 322.15 24.95 Q 326.554 21.469 333.808 20.908 A 37.527 37.527 0 0 1 336.7 20.8 A 40.794 40.794 0 0 1 341.146 21.031 Q 343.454 21.284 345.47 21.815 A 25.234 25.234 0 0 1 345.6 21.85 Q 349.5 22.9 352.6 24.5 L 350.1 31.9 Q 347.4 30.3 343.95 29.3 A 25.024 25.024 0 0 0 339.467 28.453 A 31.837 31.837 0 0 0 336.3 28.3 A 20.632 20.632 0 0 0 333.363 28.495 Q 330.277 28.94 328.4 30.4 A 9.322 9.322 0 0 0 327.042 31.673 Q 326.34 32.492 326.005 33.365 A 4.529 4.529 0 0 0 325.7 35 A 4.921 4.921 0 0 0 327.195 38.552 A 7.082 7.082 0 0 0 327.8 39.1 A 9.88 9.88 0 0 0 329.1 39.969 Q 331.373 41.271 335.798 42.734 A 84.459 84.459 0 0 0 336 42.8 A 67.753 67.753 0 0 1 341.062 44.698 Q 346.989 47.217 349.8 50.1 Q 353.7 54.1 353.7 60.1 Q 353.7 66.848 348.449 70.855 A 16.618 16.618 0 0 1 348.05 71.15 Q 343.31 74.547 335.862 75.095 A 40.423 40.423 0 0 1 332.9 75.2 Q 327 75.2 322.25 73.7 A 30.883 30.883 0 0 1 318.41 72.215 Q 316.429 71.284 314.848 70.136 A 18.229 18.229 0 0 1 314.4 69.8 Z M 361.2 69.8 L 365 62.3 A 18.557 18.557 0 0 0 368.144 64.426 Q 369.698 65.27 371.55 65.95 A 24.073 24.073 0 0 0 379.161 67.387 A 27.464 27.464 0 0 0 380 67.4 Q 385.392 67.4 388.235 65.685 A 7.738 7.738 0 0 0 388.45 65.55 Q 391.3 63.7 391.3 60.8 A 7.123 7.123 0 0 0 390.986 58.653 A 6.212 6.212 0 0 0 390.25 57.1 A 6.384 6.384 0 0 0 389.321 56.006 Q 388.307 55.034 386.634 54.081 A 22.3 22.3 0 0 0 386.4 53.95 A 28.462 28.462 0 0 0 384.406 52.957 Q 382.29 51.995 379.301 50.946 A 103.602 103.602 0 0 0 378.3 50.6 A 46.616 46.616 0 0 1 373.902 48.857 Q 371.788 47.883 370.112 46.795 A 19.335 19.335 0 0 1 367.35 44.65 A 11.324 11.324 0 0 1 364.056 38.654 A 16.794 16.794 0 0 1 363.7 35.1 Q 363.7 29.1 368.95 24.95 Q 373.354 21.469 380.608 20.908 A 37.527 37.527 0 0 1 383.5 20.8 A 40.794 40.794 0 0 1 387.946 21.031 Q 390.254 21.284 392.27 21.815 A 25.234 25.234 0 0 1 392.4 21.85 Q 396.3 22.9 399.4 24.5 L 396.9 31.9 Q 394.2 30.3 390.75 29.3 A 25.024 25.024 0 0 0 386.267 28.453 A 31.837 31.837 0 0 0 383.1 28.3 A 20.632 20.632 0 0 0 380.163 28.495 Q 377.077 28.94 375.2 30.4 A 9.322 9.322 0 0 0 373.842 31.673 Q 373.14 32.492 372.805 33.365 A 4.529 4.529 0 0 0 372.5 35 A 4.921 4.921 0 0 0 373.995 38.552 A 7.082 7.082 0 0 0 374.6 39.1 A 9.88 9.88 0 0 0 375.9 39.969 Q 378.173 41.271 382.598 42.734 A 84.459 84.459 0 0 0 382.8 42.8 A 67.753 67.753 0 0 1 387.862 44.698 Q 393.789 47.217 396.6 50.1 Q 400.5 54.1 400.5 60.1 Q 400.5 66.848 395.249 70.855 A 16.618 16.618 0 0 1 394.85 71.15 Q 390.11 74.547 382.662 75.095 A 40.423 40.423 0 0 1 379.7 75.2 Q 373.8 75.2 369.05 73.7 A 30.883 30.883 0 0 1 365.21 72.215 Q 363.229 71.284 361.648 70.136 A 18.229 18.229 0 0 1 361.2 69.8 Z M 9 56.1 L 9 31.7 L 0 31.7 L 0 23.9 L 9.2 23.9 L 11.1 7.5 L 18 7.5 L 18 23.9 L 32.4 23.9 L 32.4 31.7 L 18 31.7 L 18 56.8 A 21.559 21.559 0 0 0 18.168 59.596 Q 18.641 63.202 20.45 64.9 Q 22.9 67.2 26.3 67.2 Q 28.8 67.2 31.05 66.4 Q 33.3 65.6 35.2 64.5 L 37.7 71.7 A 18.546 18.546 0 0 1 36.082 72.556 Q 35.28 72.935 34.334 73.308 A 43.365 43.365 0 0 1 32.3 74.05 Q 28.9 75.2 25.2 75.2 Q 17.7 75.2 13.35 70.25 A 16.116 16.116 0 0 1 10.122 64.348 Q 9.359 61.917 9.115 58.98 A 34.777 34.777 0 0 1 9 56.1 Z M 414.5 56.1 L 414.5 31.7 L 405.5 31.7 L 405.5 23.9 L 414.7 23.9 L 416.6 7.5 L 423.5 7.5 L 423.5 23.9 L 437.9 23.9 L 437.9 31.7 L 423.5 31.7 L 423.5 56.8 A 21.559 21.559 0 0 0 423.668 59.596 Q 424.141 63.202 425.95 64.9 Q 428.4 67.2 431.8 67.2 Q 434.3 67.2 436.55 66.4 Q 438.8 65.6 440.7 64.5 L 443.2 71.7 A 18.546 18.546 0 0 1 441.582 72.556 Q 440.78 72.935 439.834 73.308 A 43.365 43.365 0 0 1 437.8 74.05 Q 434.4 75.2 430.7 75.2 Q 423.2 75.2 418.85 70.25 A 16.116 16.116 0 0 1 415.622 64.348 Q 414.859 61.917 414.615 58.98 A 34.777 34.777 0 0 1 414.5 56.1 Z M 292.8 26.2 L 292.8 22 L 301 22 L 301 61.4 A 12.15 12.15 0 0 0 301.102 63.036 Q 301.434 65.47 302.85 66.35 Q 304.7 67.5 306.9 67.5 L 305 74.5 A 17.722 17.722 0 0 1 300.735 74.028 Q 295.098 72.628 293.503 67.08 A 13.59 13.59 0 0 1 293.4 66.7 A 21.307 21.307 0 0 1 290.29 70.126 A 28.498 28.498 0 0 1 287.15 72.55 Q 283.2 75.2 277.1 75.2 Q 270.6 75.2 265.3 71.9 A 22.947 22.947 0 0 1 257.887 64.373 A 27.923 27.923 0 0 1 256.85 62.55 A 27.228 27.228 0 0 1 254.22 54.608 A 36.644 36.644 0 0 1 253.7 48.3 A 33.142 33.142 0 0 1 254.697 40.031 A 27.968 27.968 0 0 1 256.85 34.3 Q 260 28.1 265.55 24.45 A 22.297 22.297 0 0 1 276.745 20.844 A 27.388 27.388 0 0 1 278.3 20.8 A 22.584 22.584 0 0 1 283.094 21.29 A 18.703 18.703 0 0 1 286.45 22.35 A 26.002 26.002 0 0 1 290.737 24.644 A 22.103 22.103 0 0 1 292.8 26.2 Z M 114.5 71.75 A 24.559 24.559 0 0 0 119.098 73.84 Q 123.153 75.2 127.8 75.2 Q 135.2 75.2 141.05 71.8 Q 146.9 68.4 150.3 62.25 A 26.255 26.255 0 0 0 152.953 55.109 A 34.184 34.184 0 0 0 153.7 47.8 A 34.542 34.542 0 0 0 153.215 41.891 A 25.795 25.795 0 0 0 150.25 33.45 Q 146.8 27.4 140.95 24.1 A 24.848 24.848 0 0 0 136.309 22.073 A 27.738 27.738 0 0 0 127.8 20.8 A 31.325 31.325 0 0 0 126.22 20.839 A 26.169 26.169 0 0 0 114.6 24.1 Q 108.7 27.4 105.3 33.5 A 26.023 26.023 0 0 0 102.551 41.09 A 35.006 35.006 0 0 0 101.9 48 A 34.82 34.82 0 0 0 102.165 52.354 A 27.451 27.451 0 0 0 105.25 62.15 Q 108.6 68.3 114.5 71.75 Z M 127.8 67.2 Q 135.7 67.2 140.1 61.85 A 18.802 18.802 0 0 0 143.919 53.76 A 27.105 27.105 0 0 0 144.5 48 Q 144.5 42.8 142.3 38.45 A 19.198 19.198 0 0 0 138.128 32.881 A 18.17 18.17 0 0 0 136.35 31.45 Q 132.6 28.8 127.8 28.8 A 19.249 19.249 0 0 0 122.574 29.472 A 14.037 14.037 0 0 0 115.5 34 A 17.878 17.878 0 0 0 111.826 41.374 Q 111.1 44.306 111.1 47.8 Q 111.1 53 113.3 57.45 A 19.437 19.437 0 0 0 116.83 62.49 A 17.627 17.627 0 0 0 119.25 64.55 Q 123 67.2 127.8 67.2 Z M 292 60.7 L 292 32.8 Q 289.3 30.9 286.05 29.75 Q 282.8 28.6 279.2 28.6 A 15.924 15.924 0 0 0 274.229 29.354 A 14.024 14.024 0 0 0 270.75 31.05 A 16.301 16.301 0 0 0 265.731 36.474 A 19.962 19.962 0 0 0 265 37.85 A 20.663 20.663 0 0 0 263.247 43.527 A 27.678 27.678 0 0 0 262.9 48 Q 262.9 53.6 265 57.95 A 17.602 17.602 0 0 0 268.106 62.496 A 15.697 15.697 0 0 0 270.8 64.75 Q 274.5 67.2 279.1 67.2 Q 282.9 67.2 286.3 65.35 Q 289.7 63.5 292 60.7 Z M 454.563 73.262 A 6.418 6.418 0 0 0 459.2 75.2 A 8.605 8.605 0 0 0 459.822 75.178 A 6.461 6.461 0 0 0 464 73.35 Q 465.9 71.5 465.9 68.5 A 6.225 6.225 0 0 0 465.321 65.829 A 6.955 6.955 0 0 0 463.85 63.8 A 8.478 8.478 0 0 0 463.329 63.331 A 6.325 6.325 0 0 0 459.2 61.8 A 8.813 8.813 0 0 0 457.347 61.985 A 5.979 5.979 0 0 0 454.3 63.6 A 5.927 5.927 0 0 0 452.732 66.44 A 8.624 8.624 0 0 0 452.5 68.5 Q 452.5 71.2 454.5 73.2 A 8.317 8.317 0 0 0 454.563 73.262 Z" vector-effect="non-scaling-stroke"/></g></svg>